<?xml version="1.0" encoding="UTF-8"?>
<!-- Generated by Pixelmator Pro 3.6.16 -->
<svg width="271" height="55" viewBox="0 0 271 55" xmlns="http://www.w3.org/2000/svg">
    <g id="Layer2">
        <g id="Layer1-2">
            <path id="Trac" fill="#ffffff" stroke="none" d="M 27.91 51.139996 C 27.059999 47.680004 26.629999 45.949993 25.780001 42.450001 C 21.059999 42.939999 18.709999 43.189999 13.99 43.719997 L 11.83 53.27 C 7.1 53.939999 4.73 54.27 0 55.02 C 4.14 37.406668 8.403333 19.823335 12.79 2.27 C 18.790001 2.27 21.790001 2.27 27.73 2.219997 C 31.836666 18.059999 36.026666 33.880001 40.299999 49.680004 C 35.34 50.27 32.860001 50.540005 27.91 51.139996 Z M 20.129999 13.140003 L 19.83 13.140003 C 18.030001 21.680004 17.129999 26.000004 15.34 34.740002 C 18.93 34.430004 20.719999 34.27 24.34 33.98 C 22.639999 25.719997 21.799999 21.549999 20.129999 13.119999 Z"/>
            <path id="path1" fill="#ffffff" stroke="none" d="M 43.419998 49.389996 L 43.57 2.210003 L 55.57 2.210003 L 55.450001 38.619999 C 61.07 38.219997 63.880001 38.030003 69.510002 37.700001 C 69.510002 41.450001 69.510002 43.329998 69.510002 47.090008 C 59.07 47.829998 53.849998 48.27 43.419998 49.389996 Z"/>
            <path id="path2" fill="#ffffff" stroke="none" d="M 98.559998 45.370007 C 95.822014 46.179989 92.993301 46.643597 90.139999 46.749996 C 87.123863 46.969173 84.094818 46.567577 81.239998 45.570004 C 78.730095 44.674557 76.465851 43.201603 74.629997 41.27 C 72.758064 39.219044 71.346489 36.791401 70.489998 34.149998 C 69.4935 31.080463 69.013634 27.866749 69.07 24.640003 C 69.041451 21.364697 69.541199 18.106213 70.550003 14.990002 C 71.436241 12.242535 72.845451 9.692387 74.699997 7.48 C 76.457375 5.403263 78.662621 3.751888 81.150002 2.649998 C 83.787323 1.495487 86.641335 0.919231 89.519997 0.960003 C 92.588974 0.870304 95.646004 1.37981 98.519997 2.460003 C 100.658562 3.282299 102.595573 4.554317 104.199997 6.189999 C 101.599998 9.049999 100.309998 10.490002 97.709999 13.380001 C 95.849854 11.323597 93.158302 10.220509 90.389999 10.380001 C 88.89222 10.361309 87.418259 10.755749 86.129997 11.52 C 84.912437 12.275784 83.88578 13.302441 83.129997 14.52 C 82.291435 15.869305 81.695763 17.355106 81.370003 18.91 C 80.620422 22.401196 80.596596 26.009212 81.300003 29.509998 C 81.590462 31.029858 82.156441 32.483776 82.970001 33.799999 C 83.698097 34.969067 84.696014 35.946415 85.879997 36.649998 C 87.166794 37.372051 88.639015 37.695736 90.110001 37.579998 C 91.577766 37.598232 93.023933 37.225468 94.300003 36.500004 L 94.300003 28.390003 L 88.650002 28.570004 C 88.650002 25.130001 88.650002 23.420002 88.650002 19.98 C 95.080002 19.84 98.290001 19.780003 104.730003 19.680004 L 104.730003 42.600002 C 102.811584 43.804699 100.735054 44.73695 98.559998 45.370007 Z"/>
            <path id="path3" fill="#ffffff" stroke="none" d="M 149.770004 23.27 C 149.807877 26.399799 149.331528 29.514568 148.360001 32.490002 C 147.521103 35.100071 146.160202 37.51228 144.360001 39.579998 C 142.597641 41.542316 140.422089 43.089451 137.990005 44.109997 C 135.304504 45.216747 132.424515 45.77438 129.520004 45.749996 C 126.608818 45.842449 123.709465 45.338802 121 44.27 C 118.566063 43.285366 116.38784 41.760265 114.629997 39.810001 C 112.82914 37.746525 111.468063 35.337429 110.629997 32.73 C 109.656433 29.738087 109.183403 26.605984 109.230003 23.460003 C 109.199127 20.322414 109.668343 17.19994 110.620003 14.210003 C 111.454025 11.594807 112.815392 9.178387 114.620003 7.109997 C 116.372795 5.122791 118.554443 3.560078 121 2.539997 C 126.464622 0.399975 132.535385 0.399975 138 2.539997 C 140.428543 3.552509 142.60112 5.093128 144.360001 7.049999 C 146.143753 9.095402 147.503403 11.474789 148.360001 14.049999 C 149.331711 17.025387 149.808044 20.140194 149.770004 23.27 Z M 137.559998 23.27 C 137.565506 21.546055 137.387848 19.826405 137.029999 18.140003 C 136.740356 16.696072 136.227539 15.306072 135.509995 14.02 C 134.90126 12.91869 134.041306 11.976505 133 11.27 C 131.964066 10.592503 130.747543 10.243923 129.509995 10.27 C 128.268204 10.259029 127.049561 10.60622 126 11.27 C 124.951401 11.974094 124.084419 12.91647 123.470001 14.02 C 122.752602 15.306736 122.249359 16.701626 121.980003 18.149998 C 121.64064 19.845341 121.47644 21.571079 121.489998 23.299999 C 121.479797 25.034916 121.640572 26.766613 121.970001 28.469997 C 122.237793 29.921963 122.741096 31.320393 123.459999 32.609997 C 124.07753 33.708561 124.944054 34.647015 125.989998 35.350002 C 127.044243 36.02808 128.276794 36.376255 129.529999 36.350002 C 130.772064 36.387142 131.995041 36.037724 133.029999 35.350002 C 134.060242 34.629665 134.91478 33.68626 135.529999 32.59 C 136.252274 31.295444 136.765274 29.894817 137.050003 28.439999 C 137.405716 26.740063 137.576706 25.006672 137.559998 23.27 Z"/>
            <path id="path4" fill="#ffffff" stroke="none" d="M 167.460007 10.859997 L 167.460007 19.680004 C 172.460007 19.759998 175.009995 19.799999 180.039993 19.91 C 180.039993 23.280003 180.039993 24.969997 180.039993 28.34 C 175.039993 28.189999 172.539993 28.130001 167.529999 28.009998 C 167.529999 34.880001 167.529999 38.310001 167.529999 45.170002 C 162.699997 45.000004 160.279999 44.930004 155.449997 44.820004 L 155.389999 2.09 L 181.050003 2.09 C 181.050003 5.649998 181.050003 7.420002 181.050003 10.969997 C 175.679993 10.930004 172.940002 10.899998 167.460007 10.859997 Z"/>
            <path id="path5" fill="#ffffff" stroke="none" d="M 186.240005 46.040005 C 186.186671 31.373333 186.143336 16.733331 186.110001 2.119999 L 198.110001 2.119999 L 198.229996 37.450001 C 203.850006 37.77 206.669998 37.939999 212.289993 38.329998 C 212.289993 42.16 212.289993 44.070004 212.289993 47.889996 C 201.919998 47.010006 196.690002 46.630001 186.240005 46.040005 Z"/>
            <path id="path6" fill="#ffffff" stroke="none" d="M 216.229996 48.27 C 216.169998 32.936667 216.116669 17.576667 216.070007 2.189999 L 228.070007 2.189999 L 228.220001 49.41 C 223.410004 48.930004 221 48.689999 216.229996 48.27 Z"/>
            <path id="path7" fill="#ffffff" stroke="none" d="M 258.440002 53.120007 C 255.529999 45.999996 254.070007 42.509998 251.149994 35.66 C 248.289993 41.990002 246.860001 45.100002 243.990005 51.219997 C 238.990005 50.620007 236.559998 50.329998 231.600006 49.790005 C 235.993337 41.79 240.276667 33.726665 244.449997 25.600002 C 239.679993 15.969997 237.289993 11.27 232.5 2.27 L 244.919998 2.27 C 247.520004 8.27 248.820007 11.27 251.419998 17.439999 C 254.020004 11.439999 255.320007 8.439999 257.929993 2.310001 L 270.119995 2.310001 C 266.246663 10.383335 262.266663 18.403334 258.179993 26.369999 C 262.700012 35.829998 266.980011 45.370007 271.23999 54.960003 C 266.119995 54.210003 263.559998 53.829998 258.440002 53.120007 Z"/>
        </g>
    </g>
</svg>
